# xmcd
#
# Track frame offsets:
# 150
# 15036
# 32039
# 49922
# 65185
# 76601
# 95256
# 116262
# 128990
# 146326
# 163274
#
# Disc length: 2382 seconds
#
#
# Revision: 0
# Processed by: cddbd v1.5.2PL0 Copyright (c) Steve Scherf et al.
# Submitted via: FreeRIP 2.70 
#
DISCID=84094c0b
DTITLE=Pajaros - Pajaros
DYEAR=2009
DGENRE=Folk/Rock
TTITLE0=Enloqueci
TTITLE1=De las distancias
TTITLE2=Asalto de amor express
TTITLE3=Final
TTITLE4=Al arrullo del bar
TTITLE5=Sin memoria
TTITLE6=Comodo y solo
TTITLE7=El perro
TTITLE8=Beto Medina
TTITLE9=Seras mas
TTITLE10=Sonrisa esquiva
EXTD=
EXTT0=
EXTT1=
EXTT2=
EXTT3=
EXTT4=
EXTT5=
EXTT6=
EXTT7=
EXTT8=
EXTT9=
EXTT10=
PLAYORDER=
